<svg xmlns="http://www.w3.org/2000/svg" width="545" height="153" fill="none"><path d="M0 24.48C0 10.96 10.96 0 24.48 0H520.2c13.52 0 24.48 10.96 24.48 24.48v104.04c0 13.52-10.96 24.48-24.48 24.48H24.48C10.96 153 0 142.04 0 128.52V24.48z" fill="#fd0"/><g fill="#0d0c22"><path d="M109.522 50.318l-.067-.039-.156-.047c.063.053.141.083.223.087zm.985 6.995l-.075.021.075-.021zm-.958-7.007c-.009-.001-.017-.003-.025-.006.009.015.017.012.025.006z"/><path d="M109.523 50.321h.013v-.008l-.013.008zm.924 6.98l.113-.065.042-.024.038-.041a.65.65 0 0 0-.193.129z"/><path d="M109.715 50.471l-.111-.105-.075-.041c.041.071.107.124.186.146zM81.88 118.353c-.088.038-.166.098-.225.174l.07-.045.156-.129zm16.166-3.18c0-.1-.049-.082-.037.274 0-.029.012-.058.017-.086l.02-.188zm-1.67 3.18c-.088.038-.166.098-.225.174l.07-.045.155-.129zm-25.887.757a.48.48 0 0 0-.237-.111l.19.095.047.016zm-2.559-2.453c-.01-.104-.042-.204-.094-.295a2.38 2.38 0 0 1 .091.29l.003.005z"/></g><path d="M85.137 72.774c-3.517 1.506-7.509 3.213-12.682 3.213a24.01 24.01 0 0 1-6.402-.883l3.578 36.734c.127 1.535.826 2.967 1.959 4.01a6.13 6.13 0 0 0 4.158 1.622l6.766.264c1.822 0 7.285-.264 7.285-.264a6.14 6.14 0 0 0 6.116-5.632l3.832-40.592c-1.713-.585-3.441-.974-5.389-.974-3.37-.001-6.085 1.159-9.221 2.502z" fill="#fff"/><g fill="#0d0c22"><path d="M54.984 57.102l.061.057.039.024c-.03-.03-.064-.057-.1-.08z"/><path d="M116.299 53.712l-.538-2.718c-.484-2.438-1.581-4.742-4.084-5.624-.802-.282-1.713-.403-2.328-.987s-.797-1.49-.939-2.33l-.781-4.626c-.233-1.324-.418-2.811-1.025-4.026-.79-1.631-2.43-2.585-4.061-3.216a23.41 23.41 0 0 0-2.555-.79c-4.075-1.075-8.358-1.47-12.55-1.695-5.031-.278-10.076-.194-15.095.25-3.736.34-7.671.751-11.221 2.043-1.298.473-2.635 1.041-3.621 2.043-1.211 1.232-1.606 3.137-.722 4.672.628 1.091 1.693 1.861 2.822 2.371a22.89 22.89 0 0 0 4.582 1.491c4.387.97 8.93 1.35 13.412 1.512 4.967.2 9.942.038 14.886-.486a84.63 84.63 0 0 0 3.661-.483c1.435-.22 2.355-2.096 1.932-3.403-.506-1.562-1.865-2.168-3.403-1.932l-.678.101-.163.024-1.562.184c-1.076.116-2.154.211-3.235.285-2.421.169-4.849.246-7.276.25-2.384 0-4.77-.067-7.149-.224a91.05 91.05 0 0 1-3.249-.271l-1.471-.166-.466-.059-.101-.014-.484-.07c-.988-.149-1.976-.32-2.953-.527-.099-.022-.187-.077-.25-.156s-.098-.177-.098-.278.034-.199.098-.278.151-.134.25-.156h.018a47.95 47.95 0 0 1 2.557-.469l.859-.132h.008c.536-.036 1.075-.132 1.608-.195a102.29 102.29 0 0 1 13.976-.493c2.264.066 4.528.199 6.781.428l1.449.162.556.071.374.054a51.81 51.81 0 0 1 3.255.592c1.599.348 3.653.461 4.365 2.213.226.556.329 1.174.454 1.757l.16.744c.004.013.007.027.009.041l1.131 5.269a.95.95 0 0 1 .002.394.96.96 0 0 1-.155.362c-.076.109-.174.2-.287.27a.97.97 0 0 1-.371.133h-.011l-.23.032-.228.03-2.168.264c-1.425.162-2.853.303-4.283.422a149.64 149.64 0 0 1-8.54.465l-4.359.054c-5.782-.005-11.558-.34-17.302-1.006l-1.865-.233c.482.062-.35-.047-.519-.071l-1.186-.173c-1.327-.199-2.645-.444-3.969-.659-1.601-.264-3.131-.132-4.579.659a6.66 6.66 0 0 0-2.757 2.859c-.624 1.291-.81 2.697-1.089 4.084s-.714 2.88-.549 4.304c.354 3.073 2.503 5.571 5.593 6.13 2.907.527 5.831.954 8.761 1.317 11.514 1.41 23.146 1.579 34.696.503l2.817-.287c.293-.032.59.001.868.099s.531.255.74.463.37.46.469.737a1.98 1.98 0 0 1 .105.867l-.293 2.843-1.767 17.232-1.857 18.093-.527 5.095c-.169 1.671-.192 3.396-.51 5.048-.5 2.597-2.259 4.193-4.825 4.776a33.67 33.67 0 0 1-7.164.838c-2.673.014-5.344-.104-8.017-.09-2.853.016-6.348-.247-8.551-2.371-1.935-1.865-2.203-4.786-2.466-7.311l-1.045-10.029-1.936-18.586-1.253-12.026-.062-.595c-.15-1.434-1.166-2.839-2.766-2.766-1.37.061-2.927 1.225-2.766 2.766l.929 8.916 1.921 18.443 1.637 15.718.315 3.014c.602 5.486 4.791 8.442 9.979 9.274 3.03.488 6.133.588 9.208.638 3.941.063 7.922.215 11.799-.499 5.745-1.054 10.055-4.89 10.67-10.841l.527-5.154 1.75-17.053 1.904-18.574.874-8.513c.043-.422.222-.819.508-1.132a1.98 1.98 0 0 1 1.083-.606c1.643-.32 3.213-.867 4.382-2.117 1.86-1.99 2.23-4.586 1.572-7.202zm-61.794 1.836c.025-.012-.021.203-.041.303-.004-.151.004-.286.041-.303zm.159 1.233c.013-.009.053.044.093.107-.062-.058-.101-.101-.095-.107h.001zm.157.207c.057.096.087.157 0 0h0zm.315.256h.008c0 .009.014.018.02.028a.21.21 0 0 0-.029-.028h.001zm55.133-.382c-.59.561-1.48.822-2.358.953-9.854 1.462-19.851 2.202-29.813 1.876-7.129-.244-14.184-1.035-21.242-2.033-.692-.097-1.441-.224-1.917-.734-.896-.962-.456-2.898-.223-4.06.213-1.064.622-2.483 1.888-2.635 1.976-.232 4.271.602 6.226.898 2.354.359 4.716.647 7.087.863 10.12.922 20.409.779 30.484-.57a127.13 127.13 0 0 0 5.489-.86c1.625-.291 3.425-.838 4.407.844.673 1.146.762 2.679.658 3.974-.032.564-.278 1.095-.689 1.483h.002z"/></g><path d="M170.036 84.24c-.575 1.098-1.366 2.055-2.373 2.866s-2.181 1.473-3.524 1.982-2.693.853-4.051 1.027-2.678.16-3.955-.048-2.367-.628-3.261-1.266l1.008-10.462c.926-.318 2.092-.645 3.499-.979a32.03 32.03 0 0 1 4.339-.716 18.59 18.59 0 0 1 4.219.048c1.326.175 2.373.597 3.14 1.266a6.35 6.35 0 0 1 1.055 1.242c.288.446.463.908.528 1.385.159 1.338-.048 2.556-.624 3.654zm-14.623-22.285c.671-.414 1.479-.781 2.421-1.099a15.09 15.09 0 0 1 2.901-.668c.99-.127 1.957-.144 2.901-.048s1.774.358 2.493.788 1.254 1.052 1.606 1.863.447 1.84.287 3.082c-.127.987-.52 1.824-1.174 2.508s-1.455 1.258-2.397 1.72a15.53 15.53 0 0 1-2.996 1.098 25.42 25.42 0 0 1-3.045.598l-2.541.239-1.415.048.959-10.127zm19.801 15.525a9.78 9.78 0 0 0-2.061-2.938c-.863-.844-1.887-1.456-3.069-1.839.511-.414 1.015-1.067 1.511-1.959s.918-1.863 1.27-2.914.592-2.11.719-3.177.079-1.982-.143-2.747c-.545-1.91-1.399-3.407-2.566-4.49s-2.525-1.831-4.075-2.245-3.26-.501-5.13-.262-3.78.708-5.729 1.409c0-.159.016-.326.048-.501s.047-.358.047-.55c0-.477-.239-.891-.719-1.242s-1.03-.557-1.653-.621-1.231.072-1.823.406-.999.949-1.222 1.839l-.767 8.933-.815 9.364-.863 9.386-.863 8.957c.096.86.335 1.529.719 2.007s.831.765 1.342.86 1.047.007 1.606-.263 1.047-.741 1.463-1.409c1.278.701 2.717 1.154 4.315 1.362s3.219.207 4.867 0 3.267-.597 4.865-1.171 3.053-1.29 4.363-2.149 2.413-1.84 3.309-2.938 1.486-2.285 1.773-3.559a12.44 12.44 0 0 0 .24-3.917 11.3 11.3 0 0 0-.959-3.631zm46.775 25.222c-.175 1.051-.424 2.158-.743 3.321s-.695 2.221-1.126 3.177-.911 1.726-1.438 2.316-1.096.836-1.703.741c-.479-.065-.783-.367-.91-.908s-.129-1.211 0-2.006.374-1.697.742-2.7.816-1.999 1.343-2.985 1.127-1.935 1.798-2.843 1.374-1.664 2.109-2.269c.16.191.232.668.216 1.433s-.112 1.672-.288 2.722zm16.254-20.732a2.4 2.4 0 0 0-1.583-.812c-.623-.064-1.255.287-1.893 1.051-.416.764-.944 1.497-1.583 2.198s-1.302 1.338-1.989 1.911l-1.966 1.481-1.462.908c-.128-1.019-.201-2.117-.216-3.296l.072-3.582a44.93 44.93 0 0 1 .599-5.207 33.93 33.93 0 0 1 1.319-5.16c0-.891-.209-1.616-.624-2.173s-.919-.908-1.51-1.051-1.198-.064-1.822.239-1.158.853-1.606 1.648l-1.318 3.535-1.678 3.989a40.26 40.26 0 0 1-2.086 3.941c-.767 1.273-1.606 2.405-2.517 3.392s-1.902 1.76-2.972 2.317-2.229.804-3.476.741c-.576-.159-.992-.589-1.247-1.29s-.408-1.576-.455-2.627a22.09 22.09 0 0 1 .143-3.464l.576-3.75.79-3.535.815-2.819c.384-.923.384-1.696 0-2.317s-.91-1.034-1.581-1.242-1.375-.198-2.11.024-1.263.716-1.582 1.48c-.544 1.307-1.04 2.771-1.487 4.395a45.37 45.37 0 0 0-1.078 5.04 37.75 37.75 0 0 0-.456 5.16l.003.327c-.697 1.851-1.361 3.251-1.992 4.187-.815 1.211-1.735 1.736-2.757 1.576-.449-.191-.743-.636-.887-1.338s-.192-1.56-.145-2.58.169-2.173.36-3.463l.719-4.013.911-4.18.864-3.965c-.032-1.115-.36-1.966-.984-2.556s-1.494-.819-2.612-.693c-.767.319-1.335.733-1.702 1.242s-.664 1.162-.887 1.958c-.129.415-.32 1.242-.576 2.485l-.983 4.275-1.414 5.04c-.543 1.752-1.151 3.337-1.821 4.753s-1.407 2.556-2.206 3.416-1.662 1.21-2.589 1.051c-.512-.096-.839-.621-.983-1.576s-.167-2.133-.072-3.535.288-2.938.575-4.61l.887-4.754.84-3.965.527-2.293c0-.924-.209-1.664-.623-2.222s-.919-.907-1.511-1.051-1.199-.064-1.821.239-1.159.853-1.607 1.648l-.623 2.986-.743 3.487-.671 3.511-.456 3.01-.215 2.46-.121 3.081a21.57 21.57 0 0 0 .241 3.225c.159 1.067.447 2.047.862 2.938a5.78 5.78 0 0 0 1.751 2.198c.75.573 1.701.891 2.852.956 1.182.063 2.213-.024 3.093-.263s1.677-.613 2.397-1.123a10.52 10.52 0 0 0 1.966-1.815l1.749-2.293c.544 1.211 1.247 2.15 2.11 2.819s1.774 1.067 2.733 1.194 1.934-.007 2.925-.406 1.885-1.075 2.684-2.03c.527-.586 1.023-1.252 1.489-1.988.198.345.408.678.645.985.783 1.02 1.846 1.72 3.189 2.102 1.438.382 2.843.447 4.218.191a13.5 13.5 0 0 0 3.931-1.385 18.58 18.58 0 0 0 3.477-2.413c1.07-.939 2.005-1.918 2.804-2.938l-.048 2.078-.047 2.126c-1.599 1.115-3.109 2.453-4.531 4.013a31.94 31.94 0 0 0-3.74 4.992c-1.071 1.767-1.91 3.559-2.516 5.374s-.904 3.512-.888 5.089.391 2.953 1.127 4.131 1.933 2.022 3.595 2.532c1.727.542 3.244.557 4.556.048s2.452-1.354 3.427-2.532 1.774-2.603 2.398-4.275 1.118-3.416 1.486-5.231.599-3.6.695-5.35.096-3.313 0-4.682c2.749-1.146 5.002-2.595 6.76-4.347s3.212-3.598 4.363-5.541c.351-.478.471-1.051.36-1.719s-.384-1.242-.815-1.72zm60.481-3.056c.096-.732.24-1.505.431-2.317a19.1 19.1 0 0 1 .72-2.365c.288-.764.623-1.425 1.007-1.982s.791-.955 1.222-1.194.87-.215 1.319.072c.479.287.774.892.887 1.815s0 1.911-.336 2.962-.935 2.038-1.798 2.962-2.03 1.528-3.5 1.815c-.064-.445-.048-1.035.048-1.767zm16.612 1.958c-.527-.158-1.03-.175-1.51-.047s-.783.462-.91 1.004c-.257 1.019-.665 2.062-1.224 3.128s-1.246 2.078-2.06 3.034-1.735 1.799-2.757 2.532-2.094 1.258-3.213 1.576c-1.119.351-2.046.39-2.78.119a3.48 3.48 0 0 1-1.75-1.385c-.432-.653-.744-1.441-.935-2.365a16.72 16.72 0 0 1-.336-2.867c1.822.128 3.444-.198 4.867-.979a11.48 11.48 0 0 0 3.619-3.105c.991-1.29 1.742-2.739 2.253-4.347s.799-3.208.863-4.801c.032-1.497-.191-2.762-.671-3.797s-1.127-1.84-1.942-2.413-1.75-.908-2.804-1.003-2.126.048-3.213.43a7.82 7.82 0 0 0-3.332 2.174c-.911 1.004-1.67 2.166-2.277 3.487s-1.087 2.747-1.438 4.275-.608 3.034-.767 4.515l-.248 3.827-.208.472a28.62 28.62 0 0 1-1.726 3.32c-.654 1.082-1.383 1.991-2.181 2.723s-1.63.987-2.493.764c-.512-.127-.791-.717-.839-1.767s.007-2.357.167-3.918l.552-5.064a46 46 0 0 0 .311-5.207 10.78 10.78 0 0 0-.815-4.133c-.543-1.323-1.287-2.42-2.229-3.296a7.07 7.07 0 0 0-3.284-1.744c-1.247-.287-2.589-.096-4.027.573s-2.582 1.608-3.428 2.819a35.2 35.2 0 0 0-2.326 3.822 11.35 11.35 0 0 0-1.127-2.842 9.17 9.17 0 0 0-1.821-2.293 8.25 8.25 0 0 0-2.421-1.529c-.895-.365-1.839-.549-2.83-.549-.958 0-1.845.184-2.66.549s-1.558.836-2.23 1.409-1.278 1.218-1.822 1.935-1.023 1.425-1.438 2.126l-.215-2.174c-.081-.62-.225-1.146-.432-1.576s-.503-.756-.887-.979-.927-.335-1.63-.335a2.78 2.78 0 0 0-1.055.215 3.02 3.02 0 0 0-.935.598c-.272.256-.479.565-.623.931s-.183.788-.12 1.266c.032.351.12.772.264 1.266s.279 1.139.407 1.935a33.49 33.49 0 0 1 .312 2.89c.08 1.131.103 2.516.072 4.156l-.36 5.756-.983 7.643c-.064.669.192 1.211.768 1.625a3.88 3.88 0 0 0 1.965.716 3.92 3.92 0 0 0 2.086-.382c.655-.319 1.031-.876 1.126-1.672a50.44 50.44 0 0 1 .552-4.778l1.007-5.016 1.366-4.73c.511-1.497 1.079-2.818 1.702-3.965s1.271-2.062 1.942-2.747 1.374-1.027 2.11-1.027c.894 0 1.589.406 2.085 1.218s.846 1.856 1.055 3.129.303 2.669.288 4.181l-.192 4.371-.384 3.75-.311 2.269c0 .733.279 1.313.838 1.744a3.7 3.7 0 0 0 1.87.764 3.17 3.17 0 0 0 1.942-.382c.607-.335.959-.899 1.055-1.696.319-2.293.759-4.593 1.318-6.902s1.199-4.379 1.918-6.21 1.518-3.328 2.397-4.491 1.814-1.744 2.805-1.744c.511 0 .903.351 1.174 1.051s.408 1.656.408 2.866a18.24 18.24 0 0 1-.215 2.747l-.504 2.914-.504 3.081c-.143 1.052-.215 2.15-.215 3.296 0 .796.08 1.72.24 2.771s.462 2.047.91 2.985 1.063 1.736 1.847 2.389 1.781.979 2.995.979c1.823 0 3.436-.39 4.843-1.17s2.613-1.799 3.62-3.057l.151-.202.232.56c.687 1.401 1.622 2.484 2.805 3.249s2.573 1.186 4.172 1.266 3.339-.216 5.226-.884c1.405-.51 2.628-1.147 3.667-1.911s1.973-1.696 2.804-2.795 1.59-2.365 2.278-3.797l2.085-4.921c.128-.508.008-.962-.359-1.361a2.97 2.97 0 0 0-1.343-.836zm26.057-5.329l-.647 3.105-1.031 3.511c-.415 1.21-.927 2.301-1.534 3.272s-1.303 1.744-2.085 2.317-1.686.812-2.709.716c-.512-.063-.904-.413-1.175-1.051s-.415-1.449-.432-2.436.072-2.07.264-3.248a19.95 19.95 0 0 1 .888-3.464c.399-1.13.886-2.173 1.461-3.129s1.239-1.696 1.99-2.221 1.575-.772 2.469-.741 1.854.478 2.877 1.338l-.336 2.03zm17.044 3.654c-.496-.255-1.007-.31-1.534-.167s-.903.629-1.126 1.457c-.128.892-.416 1.942-.863 3.153a20.16 20.16 0 0 1-1.654 3.439c-.656 1.083-1.407 1.983-2.254 2.699s-1.75 1.044-2.708.979c-.8-.063-1.36-.469-1.678-1.218s-.488-1.687-.504-2.819.096-2.404.335-3.821l.863-4.228 1.032-4.036.863-3.272c.255-.796.175-1.473-.24-2.031s-.935-.955-1.558-1.194a3.52 3.52 0 0 0-1.895-.191c-.639.112-1.054.454-1.246 1.027-1.886-1.624-3.7-2.5-5.441-2.627s-3.349.255-4.819 1.147-2.773 2.181-3.907 3.87a24.52 24.52 0 0 0-2.758 5.517 24.39 24.39 0 0 0-1.318 6.091c-.176 2.07-.04 3.957.408 5.661s1.238 3.097 2.373 4.179 2.677 1.625 4.627 1.625a6.15 6.15 0 0 0 2.493-.525 12.39 12.39 0 0 0 2.205-1.242c.671-.478 1.262-.979 1.775-1.505l1.198-1.314c.223 1.147.591 2.119 1.103 2.915s1.094 1.45 1.749 1.958 1.343.884 2.062 1.123a6.6 6.6 0 0 0 2.085.358c1.503 0 2.908-.51 4.22-1.529s2.485-2.269 3.524-3.75a23.86 23.86 0 0 0 2.564-4.682c.672-1.64 1.119-3.097 1.343-4.371.224-.478.183-.979-.12-1.504a2.92 2.92 0 0 0-1.199-1.171zm86.301 26.374c-.271 1.082-.695 1.999-1.271 2.747s-1.294 1.138-2.157 1.171c-.543.031-.959-.256-1.247-.86s-.487-1.386-.599-2.341a24.79 24.79 0 0 1-.144-3.201l.144-3.487.288-3.2.263-2.293c1.087.127 1.991.596 2.709 1.409s1.271 1.775 1.654 2.89.607 2.317.672 3.606-.041 2.476-.312 3.559zm-17.356 0c-.271 1.082-.695 1.999-1.27 2.747s-1.295 1.138-2.158 1.171c-.543.031-.958-.256-1.246-.86s-.488-1.386-.599-2.341-.161-2.023-.144-3.201l.144-3.487.287-3.2.264-2.293c1.086.127 1.99.596 2.708 1.409s1.271 1.775 1.655 2.89.607 2.317.671 3.606-.041 2.476-.312 3.559zm-17.81-27.133a14.27 14.27 0 0 1-.217 2.03c-.112.59-.263.964-.455 1.123-.352-.191-.784-.684-1.295-1.481s-.91-1.696-1.199-2.699-.376-1.99-.263-2.962.615-1.727 1.51-2.269c.351-.191.655-.119.911.215s.463.82.624 1.457.27 1.37.335 2.198a20.11 20.11 0 0 1 .049 2.389zm-4.244 9.53a8.54 8.54 0 0 1-1.654 1.361 7.59 7.59 0 0 1-1.87.86c-.64.191-1.215.239-1.726.143-1.438-.286-2.541-.908-3.308-1.863s-1.255-2.078-1.462-3.367-.185-2.668.072-4.133.686-2.826 1.294-4.084 1.343-2.341 2.205-3.248 1.806-1.473 2.829-1.696c-.384 1.624-.511 3.305-.384 5.04a14.1 14.1 0 0 0 1.247 4.896 12.81 12.81 0 0 0 1.606 2.532 8.75 8.75 0 0 0 2.278 1.959c-.256.542-.632 1.075-1.127 1.601zm53.05-9.053a22.95 22.95 0 0 1 .432-2.318c.191-.811.431-1.6.718-2.364s.624-1.425 1.008-1.982.79-.956 1.222-1.195.871-.215 1.318.072c.48.287.775.892.887 1.815s0 1.911-.335 2.962-.935 2.038-1.798 2.961-2.03 1.529-3.5 1.816c-.064-.445-.048-1.034.048-1.767zm19.322 0a23.22 23.22 0 0 1 .431-2.318 19.3 19.3 0 0 1 .72-2.364c.287-.765.622-1.425 1.006-1.982s.792-.956 1.223-1.195.871-.215 1.318.072c.48.287.775.892.887 1.815s0 1.911-.335 2.962-.935 2.038-1.798 2.961-2.03 1.529-3.5 1.816c-.064-.445-.048-1.034.048-1.767zm17.955 2.794a2.97 2.97 0 0 0-1.342-.836 2.73 2.73 0 0 0-1.511-.047c-.48.127-.784.462-.911 1.003-.256 1.019-.663 2.062-1.222 3.128a16.4 16.4 0 0 1-2.062 3.034 15.4 15.4 0 0 1-2.756 2.532c-1.024.733-2.094 1.258-3.212 1.576-1.12.351-2.047.391-2.782.12s-1.318-.732-1.75-1.385-.742-1.441-.935-2.365-.304-1.878-.335-2.866c1.822.128 3.444-.198 4.866-.979a11.5 11.5 0 0 0 3.621-3.105 14.06 14.06 0 0 0 2.252-4.347c.511-1.609.799-3.209.864-4.801.031-1.497-.193-2.763-.672-3.798s-1.126-1.839-1.941-2.412a5.68 5.68 0 0 0-2.806-1.004c-1.056-.096-2.125.049-3.212.43a7.83 7.83 0 0 0-3.331 2.174c-.91 1.003-1.671 2.167-2.278 3.487s-1.087 2.747-1.439 4.276-.607 3.034-.766 4.514l-.259 4.128-.389.792a16.4 16.4 0 0 1-2.062 3.034 15.37 15.37 0 0 1-2.756 2.532c-1.023.733-2.094 1.258-3.212 1.576-1.12.351-2.046.391-2.781.12a3.49 3.49 0 0 1-1.75-1.385c-.431-.653-.743-1.441-.935-2.365s-.304-1.878-.336-2.866c1.822.128 3.444-.198 4.867-.979a11.49 11.49 0 0 0 3.619-3.105c.991-1.289 1.742-2.738 2.253-4.347s.8-3.209.863-4.801c.032-1.497-.191-2.763-.67-3.798s-1.128-1.839-1.943-2.412-1.749-.908-2.804-1.004-2.126.049-3.212.43c-1.312.447-2.422 1.171-3.332 2.174s-1.671 2.167-2.278 3.487-1.086 2.747-1.438 4.276a38.38 38.38 0 0 0-.767 4.514l-.196 2.44-.931.784a28.77 28.77 0 0 1-3.476 2.413 21.54 21.54 0 0 1-3.787 1.768 15.25 15.25 0 0 1-4.028.836l2.973-31.72c.192-.669.096-1.258-.288-1.767s-.879-.86-1.486-1.051-1.255-.175-1.942.047-1.254.733-1.702 1.528l-.695 4.968-.719 6.879-.719 7.691-.624 7.405-.022.294-.841.709a28.77 28.77 0 0 1-3.476 2.413c-1.215.717-2.477 1.306-3.787 1.768a15.22 15.22 0 0 1-4.028.836l2.973-31.72c.192-.669.096-1.258-.287-1.767s-.88-.86-1.487-1.051-1.255-.175-1.942.047-1.254.733-1.702 1.528l-.694 4.968-.72 6.879-.719 7.691-.623 7.405-.011.134a11.43 11.43 0 0 1-1.644.607c-.607.176-1.294.279-2.061.311a18.44 18.44 0 0 0 .311-1.911l.193-2.198.048-2.293-.12-2.102c-.161-1.368-.456-2.667-.887-3.893s-1.015-2.252-1.75-3.081-1.654-1.385-2.758-1.671-2.389-.192-3.858.286c-2.175-.286-4.132-.087-5.874.597s-3.253 1.68-4.531 2.985-2.325 2.842-3.14 4.61-1.359 3.583-1.63 5.445c-.115.79-.171 1.576-.188 2.36-.495 1.01-1.037 1.892-1.634 2.633-.847 1.051-1.726 1.911-2.637 2.579s-1.814 1.179-2.708 1.529-1.695.59-2.398.716c-.831.159-1.63.176-2.397.048s-1.471-.493-2.109-1.099c-.512-.445-.904-1.162-1.175-2.15s-.431-2.109-.479-3.368a27.76 27.76 0 0 1 .143-3.941c.143-1.369.391-2.667.743-3.893s.798-2.325 1.343-3.297 1.182-1.664 1.918-2.078a.87.87 0 0 1 .767.74c.096.43.119.94.071 1.529l-.215 1.815c-.096.621-.144 1.139-.144 1.553.16.86.471 1.529.935 2.007s.983.757 1.558.836 1.142-.055 1.703-.406 1.013-.907 1.366-1.672c.031.032.079.048.143.048l.672-6.067c.191-.829.063-1.561-.384-2.198s-1.039-1.004-1.774-1.099c-.927-1.338-2.182-2.046-3.764-2.126s-3.204.438-4.866 1.553c-1.023.733-1.926 1.744-2.709 3.033s-1.422 2.723-1.917 4.299-.848 3.241-1.055 4.993-.248 3.456-.121 5.111.424 3.218.888 4.682 1.11 2.692 1.942 3.678c.703.86 1.501 1.49 2.396 1.888s1.83.644 2.805.74a10.45 10.45 0 0 0 2.901-.119 16.23 16.23 0 0 0 2.733-.741 27.1 27.1 0 0 0 3.452-1.576 21.27 21.27 0 0 0 3.404-2.293c.572-.469 1.122-.981 1.654-1.529.242.599.513 1.178.839 1.721.863 1.433 2.029 2.596 3.5 3.487s3.276 1.321 5.417 1.29c2.302-.032 4.427-.613 6.377-1.744s3.548-2.795 4.795-4.992a17.14 17.14 0 0 0 5.51-.916l-.045.582-.192 3.439-.215 3.893-.216 4.872a46.89 46.89 0 0 0 .192 5.16c.16 1.735.495 3.312 1.007 4.73s1.237 2.619 2.181 3.607 2.181 1.576 3.716 1.767c1.63.222 3.036-.064 4.219-.86s2.141-1.887 2.877-3.272 1.253-2.986 1.558-4.801.391-3.639.264-5.471a20.81 20.81 0 0 0-1.008-5.182c-.543-1.624-1.295-2.962-2.253-4.014.576-.158 1.262-.461 2.062-.907l2.469-1.505.621-.422-.118 2.405-.216 3.893-.215 4.872c-.032 1.704.032 3.424.192 5.16s.495 3.312 1.006 4.73 1.239 2.619 2.181 3.607 2.182 1.576 3.717 1.767c1.629.222 3.035-.064 4.218-.86s2.142-1.887 2.877-3.272 1.254-2.986 1.558-4.801a23.27 23.27 0 0 0 .264-5.471c-.128-1.831-.464-3.558-1.006-5.182s-1.295-2.962-2.255-4.014c.576-.158 1.263-.461 2.062-.907l2.47-1.505 1.314-.896c.164 1.557.518 2.924 1.082 4.073.688 1.402 1.622 2.484 2.805 3.249s2.573 1.186 4.172 1.265 3.339-.215 5.226-.884c1.406-.509 2.628-1.146 3.667-1.91a13.72 13.72 0 0 0 2.805-2.794l.14-.197c.148.446.312.874.507 1.272.688 1.402 1.623 2.484 2.805 3.249s2.573 1.186 4.171 1.265 3.34-.215 5.226-.884c1.407-.509 2.629-1.146 3.668-1.91a13.72 13.72 0 0 0 2.805-2.794c.832-1.098 1.589-2.365 2.277-3.798l2.086-4.92c.127-.509.007-.963-.36-1.361z" fill-rule="evenodd" fill="#0d0c23"/></svg>