<?xml version="1.0" standalone="no"?>
<!DOCTYPE svg PUBLIC "-//W3C//DTD SVG 20010904//EN"
 "http://www.w3.org/TR/2001/REC-SVG-20010904/DTD/svg10.dtd">
<svg version="1.0" xmlns="http://www.w3.org/2000/svg"
 width="700.000000pt" height="700.000000pt" viewBox="0 0 700.000000 700.000000"
 preserveAspectRatio="xMidYMid meet">
<metadata>
Created by potrace 1.14, written by Peter Selinger 2001-2017
</metadata>
<g transform="translate(0.000000,700.000000) scale(0.100000,-0.100000)"
fill="#000000" stroke="none">
<path d="M3280 6994 c-19 -2 -84 -9 -145 -14 -578 -56 -1180 -283 -1660 -625
-237 -169 -531 -446 -709 -670 -416 -521 -673 -1147 -748 -1820 -17 -154 -17
-585 0 -730 69 -588 254 -1099 567 -1570 126 -189 242 -332 410 -504 580 -595
1295 -943 2140 -1043 145 -17 576 -17 730 0 822 91 1556 447 2131 1034 203
206 348 390 487 618 274 449 432 915 499 1465 16 135 16 591 0 730 -100 846
-447 1557 -1043 2141 -555 542 -1249 874 -2029 970 -117 15 -553 27 -630 18z
m2190 -3494 l0 -1970 -1970 0 -1970 0 0 1970 0 1970 1970 0 1970 0 0 -1970z"/>
<path d="M1850 3500 l0 -1650 1650 0 1650 0 0 1650 0 1650 -1650 0 -1650 0 0
-1650z m1424 733 c-68 -181 -249 -658 -401 -1060 l-277 -733 -99 0 c-90 0 -99
2 -92 18 8 19 783 2070 790 2090 3 8 33 12 104 12 l99 0 -124 -327z m1326 325
c0 -2 -180 -478 -399 -1058 l-400 -1055 -101 -3 -101 -3 14 33 c7 18 188 495
402 1061 l389 1027 98 0 c54 0 98 -1 98 -2z"/>
</g>
</svg>
